<?xml version="1.0" encoding="utf-8"?>
<svg width="127" height="24" viewBox="0 0 127 24" xmlns="http://www.w3.org/2000/svg">
  <defs>
    <clipPath id="clip0_2_4">
      <rect width="127" height="24" fill="white"/>
    </clipPath>
  </defs>
  <g transform="matrix(1, 0, 0, 1, -188, -201.333328)">
    <g clip-path="url(#clip0_2_4)" transform="matrix(1, 0, 0, 1, 189.333328, 203.037033)">
      <path fill-rule="evenodd" clip-rule="evenodd" d="M4 0C1.79086 0 0 1.79086 0 4V20C0 22.2091 1.79086 24 4 24H20C22.2091 24 24 22.2091 24 20V4C24 1.79086 22.2091 0 20 0H4ZM5.80769 20H6.88462C7.09883 20 7.30427 19.9157 7.45574 19.7657C7.60721 19.6157 7.69231 19.4122 7.69231 19.2V14.4C7.69231 14.1878 7.60721 13.9843 7.45574 13.8343C7.30427 13.6843 7.09883 13.6 6.88462 13.6H5.80769C5.59348 13.6 5.38804 13.6843 5.23657 13.8343C5.0851 13.9843 5 14.1878 5 14.4V19.2C5 19.4122 5.0851 19.6157 5.23657 19.7657C5.38804 19.9157 5.59348 20 5.80769 20ZM13.3462 20H14.4231C14.6373 20 14.8427 19.9157 14.9942 19.7657C15.1457 19.6157 15.2308 19.4122 15.2308 19.2V11.2C15.2308 10.9878 15.1457 10.7843 14.9942 10.6343C14.8427 10.4843 14.6373 10.4 14.4231 10.4H13.3462C13.1319 10.4 12.9265 10.4843 12.775 10.6343C12.6236 10.7843 12.5385 10.9878 12.5385 11.2V19.2C12.5385 19.4122 12.6236 19.6157 12.775 19.7657C12.9265 19.9157 13.1319 20 13.3462 20ZM17.1154 20H18.1923C18.4065 20 18.612 19.9157 18.7634 19.7657C18.9149 19.6157 19 19.4122 19 19.2V7.46667C19 7.25449 18.9149 7.05101 18.7634 6.90098C18.612 6.75095 18.4065 6.66667 18.1923 6.66667H17.1154C16.9012 6.66667 16.6957 6.75095 16.5443 6.90098C16.3928 7.05101 16.3077 7.25449 16.3077 7.46667V19.2C16.3077 19.4122 16.3928 19.6157 16.5443 19.7657C16.6957 19.9157 16.9012 20 17.1154 20ZM9.57692 20H10.6538C10.8681 20 11.0735 19.9157 11.225 19.7657C11.3764 19.6157 11.4615 19.4122 11.4615 19.2V4.8C11.4615 4.58783 11.3764 4.38434 11.225 4.23431C11.0735 4.08429 10.8681 4 10.6538 4H9.57692C9.36271 4 9.15727 4.08429 9.0058 4.23431C8.85433 4.38434 8.76923 4.58783 8.76923 4.8V19.2C8.76923 19.4122 8.85433 19.6157 9.0058 19.7657C9.15727 19.9157 9.36271 20 9.57692 20Z" fill="#5A4FDC"/>
    </g>
    <text style="fill: rgb(90, 79, 220); font-family: Arial, sans-serif; font-size: 20px; font-weight: 700; white-space: pre;"><tspan x="215.333" y="222.038" style="fill: rgb(0, 0, 0); font-size: 20px; word-spacing: 0px;">Hack</tspan><tspan style="font-size: 20px; word-spacing: 0px;"> - It  </tspan></text>
  </g>
</svg>